<svg width="107" height="41" viewBox="0 0 107 41" fill="none" xmlns="http://www.w3.org/2000/svg">
<path d="M97.291 31.5557C92.4863 31.5557 89.5566 28.3623 89.5566 23.3818C89.5566 18.46 92.5449 15.1201 97.0859 15.1201C100.982 15.1201 104.352 17.5518 104.352 23.1475V24.3193H93.248C93.292 27.0293 94.8887 28.626 97.3203 28.626C98.9609 28.626 100.074 27.9229 100.543 26.9854H104.205C103.531 29.7393 100.982 31.5557 97.291 31.5557ZM93.2773 21.7705H100.777C100.748 19.6025 99.3125 18.0205 97.1445 18.0205C94.8887 18.0205 93.3945 19.7344 93.2773 21.7705Z" fill="#303036"/>
<path d="M86.6562 10.0225V31.2334H82.9062V10.0225H86.6562Z" fill="#303036"/>
<path d="M64.9473 31.2334V10.0225H68.6973V17.9326H68.8438C69.4297 16.79 70.5723 15.1201 73.3848 15.1201C77.0762 15.1201 79.9766 17.9912 79.9766 23.2939C79.9766 28.5381 77.1348 31.5264 73.4141 31.5264C70.6602 31.5264 69.4297 29.8857 68.8438 28.7139H68.6094V31.2334H64.9473ZM68.6094 23.2646C68.6094 26.3701 69.957 28.4502 72.3594 28.4502C74.8496 28.4502 76.168 26.2822 76.168 23.2646C76.168 20.3057 74.8789 18.167 72.3594 18.167C69.957 18.167 68.6094 20.1885 68.6094 23.2646Z" fill="#303036"/>
<path d="M47.5449 26.751C47.5449 23.1768 50.5039 22.1221 53.4629 21.9463C54.5615 21.873 56.8467 21.7412 57.5352 21.7119V20.4521C57.5352 18.8701 56.5098 17.9619 54.6641 17.9619C52.9941 17.9619 51.9688 18.7236 51.6758 19.8662H48.0723C48.3359 17.1709 50.7676 15.1201 54.752 15.1201C57.7695 15.1201 61.2559 16.3506 61.2559 20.5986V31.2334H57.6816V29.0361H57.5645C56.8613 30.3838 55.3672 31.5557 52.877 31.5557C49.8301 31.5557 47.5449 29.8857 47.5449 26.751ZM51.1484 26.7217C51.1484 28.0986 52.2617 28.8018 53.8438 28.8018C56.0996 28.8018 57.5645 27.3076 57.5645 25.5205V24.2021L54.0488 24.4365C52.2617 24.583 51.1484 25.3154 51.1484 26.7217Z" fill="#303036"/>
<path d="M37.7598 31.5557C33.1309 31.5557 30.1426 28.2744 30.1426 23.3525C30.1426 18.4014 33.1309 15.1201 37.7598 15.1201C42.418 15.1201 45.377 18.4014 45.377 23.3525C45.377 28.2744 42.418 31.5557 37.7598 31.5557ZM37.7891 28.5674C40.3379 28.5674 41.5977 26.2529 41.5977 23.3232C41.5977 20.4229 40.3379 18.0791 37.7891 18.0791C35.1816 18.0791 33.9219 20.4229 33.9219 23.3232C33.9219 26.2529 35.1816 28.5674 37.7891 28.5674Z" fill="#303036"/>
<path d="M17.3398 31.2334H10.1328V10.0225H17.457C23.7852 10.0225 27.623 14.0068 27.623 20.5986C27.623 27.2197 23.7852 31.2334 17.3398 31.2334ZM13.9414 27.9229H17.1348C21.5586 27.9229 23.8145 25.4912 23.8145 20.5986C23.8145 15.7354 21.5586 13.333 17.252 13.333H13.9414V27.9229Z" fill="#3FC9AE"/>
<path d="M4.09766 28.5967C2.83789 28.5967 1.8125 27.5713 1.8125 26.3115C1.8125 25.0811 2.83789 24.0557 4.09766 24.0557C5.29883 24.0557 6.35352 25.0811 6.35352 26.3115C6.35352 27.5713 5.29883 28.5967 4.09766 28.5967ZM4.09766 17.2295C2.83789 17.2295 1.8125 16.2041 1.8125 14.9443C1.8125 13.7139 2.83789 12.6885 4.09766 12.6885C5.29883 12.6885 6.35352 13.7139 6.35352 14.9443C6.35352 16.2041 5.29883 17.2295 4.09766 17.2295Z" fill="#3FC9AE"/>
</svg>
